<?xml version="1.0" encoding="utf-8" standalone="no"?>
<!DOCTYPE svg PUBLIC "-//W3C//DTD SVG 1.1//EN"
  "http://www.w3.org/Graphics/SVG/1.1/DTD/svg11.dtd">
<svg xmlns:xlink="http://www.w3.org/1999/xlink" width="692.39952pt" height="562.798937pt" viewBox="0 0 692.39952 562.798937" xmlns="http://www.w3.org/2000/svg" version="1.1">
 <metadata>
  <rdf:RDF xmlns:dc="http://purl.org/dc/elements/1.1/" xmlns:cc="http://creativecommons.org/ns#" xmlns:rdf="http://www.w3.org/1999/02/22-rdf-syntax-ns#">
   <cc:Work>
    <dc:type rdf:resource="http://purl.org/dc/dcmitype/StillImage"/>
    <dc:date>2026-09-19T10:47:38.224042</dc:date>
    <dc:format>image/svg+xml</dc:format>
    <dc:creator>
     <cc:Agent>
      <dc:title>Matplotlib v3.11.0, https://matplotlib.org/</dc:title>
     </cc:Agent>
    </dc:creator>
   </cc:Work>
  </rdf:RDF>
 </metadata>
 <defs>
  <style type="text/css">*{stroke-linejoin: round; stroke-linecap: butt}</style>
 </defs>
 <g id="figure_1">
  <g id="patch_1">
   <path d="M 0 562.798937 
L 692.39952 562.798937 
L 692.39952 0 
L 0 0 
z
" style="fill: #ffffff"/>
  </g>
  <g id="axes_1">
   <g id="patch_2">
    <path d="M 99.539063 524.598937 
L 685.19952 524.598937 
L 685.19952 49.216095 
L 99.539063 49.216095 
z
" style="fill: #ffffff"/>
   </g>
   <g id="matplotlib.axis_1">
    <g id="xtick_1">
     <g id="line2d_1">
      <path d="M 99.539063 524.598937 
L 99.539063 49.216095 
" clip-path="url(#p2d89108b4d)" style="fill: none; stroke: #b0b0b0; stroke-opacity: 0.18; stroke-width: 0.8; stroke-linecap: square"/>
     </g>
     <g id="line2d_2">
      <defs>
       <path id="m4a557d3e5d" d="M 0 0 
L 0 3.5 
" style="stroke: #000000; stroke-width: 0.8"/>
      </defs>
      <g>
       <use xlink:href="#m4a557d3e5d" x="99.539063" y="524.598937" style="stroke: #000000; stroke-width: 0.8"/>
      </g>
     </g>
     <g id="text_1">
      <text style="font-size: 10px; font-family: 'DejaVu Sans'; text-anchor: middle" x="99.539063" y="539.196594" transform="rotate(-0 99.539063 539.196594)">0</text>
     </g>
    </g>
    <g id="xtick_2">
     <g id="line2d_3">
      <path d="M 211.093435 524.598937 
L 211.093435 49.216095 
" clip-path="url(#p2d89108b4d)" style="fill: none; stroke: #b0b0b0; stroke-opacity: 0.18; stroke-width: 0.8; stroke-linecap: square"/>
     </g>
     <g id="line2d_4">
      <g>
       <use xlink:href="#m4a557d3e5d" x="211.093435" y="524.598937" style="stroke: #000000; stroke-width: 0.8"/>
      </g>
     </g>
     <g id="text_2">
      <text style="font-size: 10px; font-family: 'DejaVu Sans'; text-anchor: middle" x="211.093435" y="539.196594" transform="rotate(-0 211.093435 539.196594)">20</text>
     </g>
    </g>
    <g id="xtick_3">
     <g id="line2d_5">
      <path d="M 322.647808 524.598937 
L 322.647808 49.216095 
" clip-path="url(#p2d89108b4d)" style="fill: none; stroke: #b0b0b0; stroke-opacity: 0.18; stroke-width: 0.8; stroke-linecap: square"/>
     </g>
     <g id="line2d_6">
      <g>
       <use xlink:href="#m4a557d3e5d" x="322.647808" y="524.598937" style="stroke: #000000; stroke-width: 0.8"/>
      </g>
     </g>
     <g id="text_3">
      <text style="font-size: 10px; font-family: 'DejaVu Sans'; text-anchor: middle" x="322.647808" y="539.196594" transform="rotate(-0 322.647808 539.196594)">40</text>
     </g>
    </g>
    <g id="xtick_4">
     <g id="line2d_7">
      <path d="M 434.202181 524.598937 
L 434.202181 49.216095 
" clip-path="url(#p2d89108b4d)" style="fill: none; stroke: #b0b0b0; stroke-opacity: 0.18; stroke-width: 0.8; stroke-linecap: square"/>
     </g>
     <g id="line2d_8">
      <g>
       <use xlink:href="#m4a557d3e5d" x="434.202181" y="524.598937" style="stroke: #000000; stroke-width: 0.8"/>
      </g>
     </g>
     <g id="text_4">
      <text style="font-size: 10px; font-family: 'DejaVu Sans'; text-anchor: middle" x="434.202181" y="539.196594" transform="rotate(-0 434.202181 539.196594)">60</text>
     </g>
    </g>
    <g id="xtick_5">
     <g id="line2d_9">
      <path d="M 545.756554 524.598937 
L 545.756554 49.216095 
" clip-path="url(#p2d89108b4d)" style="fill: none; stroke: #b0b0b0; stroke-opacity: 0.18; stroke-width: 0.8; stroke-linecap: square"/>
     </g>
     <g id="line2d_10">
      <g>
       <use xlink:href="#m4a557d3e5d" x="545.756554" y="524.598937" style="stroke: #000000; stroke-width: 0.8"/>
      </g>
     </g>
     <g id="text_5">
      <text style="font-size: 10px; font-family: 'DejaVu Sans'; text-anchor: middle" x="545.756554" y="539.196594" transform="rotate(-0 545.756554 539.196594)">80</text>
     </g>
    </g>
    <g id="xtick_6">
     <g id="line2d_11">
      <path d="M 657.310927 524.598937 
L 657.310927 49.216095 
" clip-path="url(#p2d89108b4d)" style="fill: none; stroke: #b0b0b0; stroke-opacity: 0.18; stroke-width: 0.8; stroke-linecap: square"/>
     </g>
     <g id="line2d_12">
      <g>
       <use xlink:href="#m4a557d3e5d" x="657.310927" y="524.598937" style="stroke: #000000; stroke-width: 0.8"/>
      </g>
     </g>
     <g id="text_6">
      <text style="font-size: 10px; font-family: 'DejaVu Sans'; text-anchor: middle" x="657.310927" y="539.196594" transform="rotate(-0 657.310927 539.196594)">100</text>
     </g>
    </g>
    <g id="text_7">
     <text style="font-size: 10px; font-family: 'DejaVu Sans'; text-anchor: middle" x="392.369291" y="553.196594" transform="rotate(-0 392.369291 553.196594)">Score (%)</text>
    </g>
   </g>
   <g id="matplotlib.axis_2">
    <g id="ytick_1">
     <g id="line2d_13">
      <defs>
       <path id="m3d4f01b42c" d="M 0 0 
L -3.5 0 
" style="stroke: #000000; stroke-width: 0.8"/>
      </defs>
      <g>
       <use xlink:href="#m3d4f01b42c" x="99.539063" y="79.881782" style="stroke: #000000; stroke-width: 0.8"/>
      </g>
     </g>
     <g id="text_8">
      <text style="font-size: 10px; font-family: 'DejaVu Sans'; text-anchor: end" x="92.539063" y="83.68061" transform="rotate(-0 92.539063 83.68061)">NSR (n=57)</text>
     </g>
    </g>
    <g id="ytick_2">
     <g id="line2d_14">
      <g>
       <use xlink:href="#m3d4f01b42c" x="99.539063" y="105.759999" style="stroke: #000000; stroke-width: 0.8"/>
      </g>
     </g>
     <g id="text_9">
      <text style="font-size: 10px; font-family: 'DejaVu Sans'; text-anchor: end" x="92.539063" y="109.558827" transform="rotate(-0 92.539063 109.558827)">APB (n=13)</text>
     </g>
    </g>
    <g id="ytick_3">
     <g id="line2d_15">
      <g>
       <use xlink:href="#m3d4f01b42c" x="99.539063" y="131.638215" style="stroke: #000000; stroke-width: 0.8"/>
      </g>
     </g>
     <g id="text_10">
      <text style="font-size: 10px; font-family: 'DejaVu Sans'; text-anchor: end" x="92.539063" y="135.437044" transform="rotate(-0 92.539063 135.437044)">AFL (n=4)</text>
     </g>
    </g>
    <g id="ytick_4">
     <g id="line2d_16">
      <g>
       <use xlink:href="#m3d4f01b42c" x="99.539063" y="157.516432" style="stroke: #000000; stroke-width: 0.8"/>
      </g>
     </g>
     <g id="text_11">
      <text style="font-size: 10px; font-family: 'DejaVu Sans'; text-anchor: end" x="92.539063" y="161.31526" transform="rotate(-0 92.539063 161.31526)">AFIB (n=27)</text>
     </g>
    </g>
    <g id="ytick_5">
     <g id="line2d_17">
      <g>
       <use xlink:href="#m3d4f01b42c" x="99.539063" y="183.394649" style="stroke: #000000; stroke-width: 0.8"/>
      </g>
     </g>
     <g id="text_12">
      <text style="font-size: 10px; font-family: 'DejaVu Sans'; text-anchor: end" x="92.539063" y="187.193477" transform="rotate(-0 92.539063 187.193477)">SVTA (n=3)</text>
     </g>
    </g>
    <g id="ytick_6">
     <g id="line2d_18">
      <g>
       <use xlink:href="#m3d4f01b42c" x="99.539063" y="209.272866" style="stroke: #000000; stroke-width: 0.8"/>
      </g>
     </g>
     <g id="text_13">
      <text style="font-size: 10px; font-family: 'DejaVu Sans'; text-anchor: end" x="92.539063" y="213.071694" transform="rotate(-0 92.539063 213.071694)">WPW (n=4)</text>
     </g>
    </g>
    <g id="ytick_7">
     <g id="line2d_19">
      <g>
       <use xlink:href="#m3d4f01b42c" x="99.539063" y="235.151083" style="stroke: #000000; stroke-width: 0.8"/>
      </g>
     </g>
     <g id="text_14">
      <text style="font-size: 10px; font-family: 'DejaVu Sans'; text-anchor: end" x="92.539063" y="238.949911" transform="rotate(-0 92.539063 238.949911)">PVC (n=26)</text>
     </g>
    </g>
    <g id="ytick_8">
     <g id="line2d_20">
      <g>
       <use xlink:href="#m3d4f01b42c" x="99.539063" y="261.029299" style="stroke: #000000; stroke-width: 0.8"/>
      </g>
     </g>
     <g id="text_15">
      <text style="font-size: 10px; font-family: 'DejaVu Sans'; text-anchor: end" x="92.539063" y="264.828518" transform="rotate(-0 92.539063 264.828518)">Bigeminy (n=11)</text>
     </g>
    </g>
    <g id="ytick_9">
     <g id="line2d_21">
      <g>
       <use xlink:href="#m3d4f01b42c" x="99.539063" y="286.907516" style="stroke: #000000; stroke-width: 0.8"/>
      </g>
     </g>
     <g id="text_16">
      <text style="font-size: 10px; font-family: 'DejaVu Sans'; text-anchor: end" x="92.539063" y="290.706735" transform="rotate(-0 92.539063 290.706735)">Trigeminy (n=3)</text>
     </g>
    </g>
    <g id="ytick_10">
     <g id="line2d_22">
      <g>
       <use xlink:href="#m3d4f01b42c" x="99.539063" y="312.785733" style="stroke: #000000; stroke-width: 0.8"/>
      </g>
     </g>
     <g id="text_17">
      <text style="font-size: 10px; font-family: 'DejaVu Sans'; text-anchor: end" x="92.539063" y="316.584561" transform="rotate(-0 92.539063 316.584561)">VT (n=2)</text>
     </g>
    </g>
    <g id="ytick_11">
     <g id="line2d_23">
      <g>
       <use xlink:href="#m3d4f01b42c" x="99.539063" y="338.66395" style="stroke: #000000; stroke-width: 0.8"/>
      </g>
     </g>
     <g id="text_18">
      <text style="font-size: 10px; font-family: 'DejaVu Sans'; text-anchor: end" x="92.539063" y="342.462778" transform="rotate(-0 92.539063 342.462778)">IVR (n=2)</text>
     </g>
    </g>
    <g id="ytick_12">
     <g id="line2d_24">
      <g>
       <use xlink:href="#m3d4f01b42c" x="99.539063" y="364.542167" style="stroke: #000000; stroke-width: 0.8"/>
      </g>
     </g>
     <g id="text_19">
      <text style="font-size: 10px; font-family: 'DejaVu Sans'; text-anchor: end" x="92.539063" y="368.340995" transform="rotate(-0 92.539063 368.340995)">VFL (n=2)</text>
     </g>
    </g>
    <g id="ytick_13">
     <g id="line2d_25">
      <g>
       <use xlink:href="#m3d4f01b42c" x="99.539063" y="390.420383" style="stroke: #000000; stroke-width: 0.8"/>
      </g>
     </g>
     <g id="text_20">
      <text style="font-size: 10px; font-family: 'DejaVu Sans'; text-anchor: end" x="92.539063" y="394.219602" transform="rotate(-0 92.539063 394.219602)">Fusion (n=2)</text>
     </g>
    </g>
    <g id="ytick_14">
     <g id="line2d_26">
      <g>
       <use xlink:href="#m3d4f01b42c" x="99.539063" y="416.2986" style="stroke: #000000; stroke-width: 0.8"/>
      </g>
     </g>
     <g id="text_21">
      <text style="font-size: 10px; font-family: 'DejaVu Sans'; text-anchor: end" x="92.539063" y="420.097428" transform="rotate(-0 92.539063 420.097428)">LBBBB (n=21)</text>
     </g>
    </g>
    <g id="ytick_15">
     <g id="line2d_27">
      <g>
       <use xlink:href="#m3d4f01b42c" x="99.539063" y="442.176817" style="stroke: #000000; stroke-width: 0.8"/>
      </g>
     </g>
     <g id="text_22">
      <text style="font-size: 10px; font-family: 'DejaVu Sans'; text-anchor: end" x="92.539063" y="445.975645" transform="rotate(-0 92.539063 445.975645)">RBBBB (n=12)</text>
     </g>
    </g>
    <g id="ytick_16">
     <g id="line2d_28">
      <g>
       <use xlink:href="#m3d4f01b42c" x="99.539063" y="468.055034" style="stroke: #000000; stroke-width: 0.8"/>
      </g>
     </g>
     <g id="text_23">
      <text style="font-size: 10px; font-family: 'DejaVu Sans'; text-anchor: end" x="92.539063" y="471.853862" transform="rotate(-0 92.539063 471.853862)">SDHB (n=2)</text>
     </g>
    </g>
    <g id="ytick_17">
     <g id="line2d_29">
      <g>
       <use xlink:href="#m3d4f01b42c" x="99.539063" y="493.93325" style="stroke: #000000; stroke-width: 0.8"/>
      </g>
     </g>
     <g id="text_24">
      <text style="font-size: 10px; font-family: 'DejaVu Sans'; text-anchor: end" x="92.539063" y="497.732079" transform="rotate(-0 92.539063 497.732079)">PR (n=9)</text>
     </g>
    </g>
   </g>
   <g id="patch_3">
    <path d="M 99.539063 70.824406 
L 607.509867 70.824406 
L 607.509867 76.517614 
L 99.539063 76.517614 
z
" clip-path="url(#p2d89108b4d)" style="fill: #213b56"/>
   </g>
   <g id="patch_4">
    <path d="M 99.539063 96.702623 
L 409.41232 96.702623 
L 409.41232 102.39583 
L 99.539063 102.39583 
z
" clip-path="url(#p2d89108b4d)" style="fill: #213b56"/>
   </g>
   <g id="patch_5">
    <path d="M 99.539063 122.58084 
L 545.756554 122.58084 
L 545.756554 128.274047 
L 99.539063 128.274047 
z
" clip-path="url(#p2d89108b4d)" style="fill: #213b56"/>
   </g>
   <g id="patch_6">
    <path d="M 99.539063 148.459056 
L 637.390503 148.459056 
L 637.390503 154.152264 
L 99.539063 154.152264 
z
" clip-path="url(#p2d89108b4d)" style="fill: #213b56"/>
   </g>
   <g id="patch_7">
    <path d="M 99.539063 174.337273 
L 99.539063 174.337273 
L 99.539063 180.030481 
L 99.539063 180.030481 
z
" clip-path="url(#p2d89108b4d)" style="fill: #213b56"/>
   </g>
   <g id="patch_8">
    <path d="M 99.539063 200.21549 
L 657.310927 200.21549 
L 657.310927 205.908698 
L 99.539063 205.908698 
z
" clip-path="url(#p2d89108b4d)" style="fill: #213b56"/>
   </g>
   <g id="patch_9">
    <path d="M 99.539063 226.093707 
L 541.108455 226.093707 
L 541.108455 231.786914 
L 99.539063 231.786914 
z
" clip-path="url(#p2d89108b4d)" style="fill: #213b56"/>
   </g>
   <g id="patch_10">
    <path d="M 99.539063 251.971923 
L 497.947537 251.971923 
L 497.947537 257.665131 
L 99.539063 257.665131 
z
" clip-path="url(#p2d89108b4d)" style="fill: #213b56"/>
   </g>
   <g id="patch_11">
    <path d="M 99.539063 277.85014 
L 657.310927 277.85014 
L 657.310927 283.543348 
L 99.539063 283.543348 
z
" clip-path="url(#p2d89108b4d)" style="fill: #213b56"/>
   </g>
   <g id="patch_12">
    <path d="M 99.539063 303.728357 
L 657.310927 303.728357 
L 657.310927 309.421565 
L 99.539063 309.421565 
z
" clip-path="url(#p2d89108b4d)" style="fill: #213b56"/>
   </g>
   <g id="patch_13">
    <path d="M 99.539063 329.606574 
L 378.424995 329.606574 
L 378.424995 335.299782 
L 99.539063 335.299782 
z
" clip-path="url(#p2d89108b4d)" style="fill: #213b56"/>
   </g>
   <g id="patch_14">
    <path d="M 99.539063 355.484791 
L 657.310927 355.484791 
L 657.310927 361.177998 
L 99.539063 361.177998 
z
" clip-path="url(#p2d89108b4d)" style="fill: #213b56"/>
   </g>
   <g id="patch_15">
    <path d="M 99.539063 381.363007 
L 99.539063 381.363007 
L 99.539063 387.056215 
L 99.539063 387.056215 
z
" clip-path="url(#p2d89108b4d)" style="fill: #213b56"/>
   </g>
   <g id="patch_16">
    <path d="M 99.539063 407.241224 
L 657.310927 407.241224 
L 657.310927 412.934432 
L 99.539063 412.934432 
z
" clip-path="url(#p2d89108b4d)" style="fill: #213b56"/>
   </g>
   <g id="patch_17">
    <path d="M 99.539063 433.119441 
L 657.310927 433.119441 
L 657.310927 438.812649 
L 99.539063 438.812649 
z
" clip-path="url(#p2d89108b4d)" style="fill: #213b56"/>
   </g>
   <g id="patch_18">
    <path d="M 99.539063 458.997658 
L 657.310927 458.997658 
L 657.310927 464.690865 
L 99.539063 464.690865 
z
" clip-path="url(#p2d89108b4d)" style="fill: #213b56"/>
   </g>
   <g id="patch_19">
    <path d="M 99.539063 484.875875 
L 657.310927 484.875875 
L 657.310927 490.569082 
L 99.539063 490.569082 
z
" clip-path="url(#p2d89108b4d)" style="fill: #213b56"/>
   </g>
   <g id="patch_20">
    <path d="M 99.539063 77.035178 
L 598.598099 77.035178 
L 598.598099 82.728386 
L 99.539063 82.728386 
z
" clip-path="url(#p2d89108b4d)" style="fill: #137e7a"/>
   </g>
   <g id="patch_21">
    <path d="M 99.539063 102.913395 
L 528.594343 102.913395 
L 528.594343 108.606602 
L 99.539063 108.606602 
z
" clip-path="url(#p2d89108b4d)" style="fill: #137e7a"/>
   </g>
   <g id="patch_22">
    <path d="M 99.539063 128.791612 
L 657.310927 128.791612 
L 657.310927 134.484819 
L 99.539063 134.484819 
z
" clip-path="url(#p2d89108b4d)" style="fill: #137e7a"/>
   </g>
   <g id="patch_23">
    <path d="M 99.539063 154.669828 
L 657.310927 154.669828 
L 657.310927 160.363036 
L 99.539063 160.363036 
z
" clip-path="url(#p2d89108b4d)" style="fill: #137e7a"/>
   </g>
   <g id="patch_24">
    <path d="M 99.539063 180.548045 
L 99.539063 180.548045 
L 99.539063 186.241253 
L 99.539063 186.241253 
z
" clip-path="url(#p2d89108b4d)" style="fill: #137e7a"/>
   </g>
   <g id="patch_25">
    <path d="M 99.539063 206.426262 
L 657.310927 206.426262 
L 657.310927 212.11947 
L 99.539063 212.11947 
z
" clip-path="url(#p2d89108b4d)" style="fill: #137e7a"/>
   </g>
   <g id="patch_26">
    <path d="M 99.539063 232.304479 
L 507.141579 232.304479 
L 507.141579 237.997686 
L 99.539063 237.997686 
z
" clip-path="url(#p2d89108b4d)" style="fill: #137e7a"/>
   </g>
   <g id="patch_27">
    <path d="M 99.539063 258.182696 
L 606.604394 258.182696 
L 606.604394 263.875903 
L 99.539063 263.875903 
z
" clip-path="url(#p2d89108b4d)" style="fill: #137e7a"/>
   </g>
   <g id="patch_28">
    <path d="M 99.539063 284.060912 
L 285.463017 284.060912 
L 285.463017 289.75412 
L 99.539063 289.75412 
z
" clip-path="url(#p2d89108b4d)" style="fill: #137e7a"/>
   </g>
   <g id="patch_29">
    <path d="M 99.539063 309.939129 
L 657.310927 309.939129 
L 657.310927 315.632337 
L 99.539063 315.632337 
z
" clip-path="url(#p2d89108b4d)" style="fill: #137e7a"/>
   </g>
   <g id="patch_30">
    <path d="M 99.539063 335.817346 
L 378.424995 335.817346 
L 378.424995 341.510554 
L 99.539063 341.510554 
z
" clip-path="url(#p2d89108b4d)" style="fill: #137e7a"/>
   </g>
   <g id="patch_31">
    <path d="M 99.539063 361.695563 
L 657.310927 361.695563 
L 657.310927 367.38877 
L 99.539063 367.38877 
z
" clip-path="url(#p2d89108b4d)" style="fill: #137e7a"/>
   </g>
   <g id="patch_32">
    <path d="M 99.539063 387.573779 
L 99.539063 387.573779 
L 99.539063 393.266987 
L 99.539063 393.266987 
z
" clip-path="url(#p2d89108b4d)" style="fill: #137e7a"/>
   </g>
   <g id="patch_33">
    <path d="M 99.539063 413.451996 
L 657.310927 413.451996 
L 657.310927 419.145204 
L 99.539063 419.145204 
z
" clip-path="url(#p2d89108b4d)" style="fill: #137e7a"/>
   </g>
   <g id="patch_34">
    <path d="M 99.539063 439.330213 
L 610.829938 439.330213 
L 610.829938 445.023421 
L 99.539063 445.023421 
z
" clip-path="url(#p2d89108b4d)" style="fill: #137e7a"/>
   </g>
   <g id="patch_35">
    <path d="M 99.539063 465.20843 
L 657.310927 465.20843 
L 657.310927 470.901638 
L 99.539063 470.901638 
z
" clip-path="url(#p2d89108b4d)" style="fill: #137e7a"/>
   </g>
   <g id="patch_36">
    <path d="M 99.539063 491.086647 
L 657.310927 491.086647 
L 657.310927 496.779854 
L 99.539063 496.779854 
z
" clip-path="url(#p2d89108b4d)" style="fill: #137e7a"/>
   </g>
   <g id="patch_37">
    <path d="M 99.539063 83.24595 
L 603.014551 83.24595 
L 603.014551 88.939158 
L 99.539063 88.939158 
z
" clip-path="url(#p2d89108b4d)" style="fill: #d39433"/>
   </g>
   <g id="patch_38">
    <path d="M 99.539063 109.124167 
L 459.391878 109.124167 
L 459.391878 114.817375 
L 99.539063 114.817375 
z
" clip-path="url(#p2d89108b4d)" style="fill: #d39433"/>
   </g>
   <g id="patch_39">
    <path d="M 99.539063 135.002384 
L 595.336275 135.002384 
L 595.336275 140.695591 
L 99.539063 140.695591 
z
" clip-path="url(#p2d89108b4d)" style="fill: #d39433"/>
   </g>
   <g id="patch_40">
    <path d="M 99.539063 160.8806 
L 647.16962 160.8806 
L 647.16962 166.573808 
L 99.539063 166.573808 
z
" clip-path="url(#p2d89108b4d)" style="fill: #d39433"/>
   </g>
   <g id="patch_41">
    <path d="M 99.539063 186.758817 
L 99.539063 186.758817 
L 99.539063 192.452025 
L 99.539063 192.452025 
z
" clip-path="url(#p2d89108b4d)" style="fill: #d39433"/>
   </g>
   <g id="patch_42">
    <path d="M 99.539063 212.637034 
L 657.310927 212.637034 
L 657.310927 218.330242 
L 99.539063 218.330242 
z
" clip-path="url(#p2d89108b4d)" style="fill: #d39433"/>
   </g>
   <g id="patch_43">
    <path d="M 99.539063 238.515251 
L 523.445679 238.515251 
L 523.445679 244.208458 
L 99.539063 244.208458 
z
" clip-path="url(#p2d89108b4d)" style="fill: #d39433"/>
   </g>
   <g id="patch_44">
    <path d="M 99.539063 264.393468 
L 545.756554 264.393468 
L 545.756554 270.086675 
L 99.539063 270.086675 
z
" clip-path="url(#p2d89108b4d)" style="fill: #d39433"/>
   </g>
   <g id="patch_45">
    <path d="M 99.539063 290.271684 
L 378.424995 290.271684 
L 378.424995 295.964892 
L 99.539063 295.964892 
z
" clip-path="url(#p2d89108b4d)" style="fill: #d39433"/>
   </g>
   <g id="patch_46">
    <path d="M 99.539063 316.149901 
L 657.310927 316.149901 
L 657.310927 321.843109 
L 99.539063 321.843109 
z
" clip-path="url(#p2d89108b4d)" style="fill: #d39433"/>
   </g>
   <g id="patch_47">
    <path d="M 99.539063 342.028118 
L 378.424995 342.028118 
L 378.424995 347.721326 
L 99.539063 347.721326 
z
" clip-path="url(#p2d89108b4d)" style="fill: #d39433"/>
   </g>
   <g id="patch_48">
    <path d="M 99.539063 367.906335 
L 657.310927 367.906335 
L 657.310927 373.599542 
L 99.539063 373.599542 
z
" clip-path="url(#p2d89108b4d)" style="fill: #d39433"/>
   </g>
   <g id="patch_49">
    <path d="M 99.539063 393.784551 
L 99.539063 393.784551 
L 99.539063 399.477759 
L 99.539063 399.477759 
z
" clip-path="url(#p2d89108b4d)" style="fill: #d39433"/>
   </g>
   <g id="patch_50">
    <path d="M 99.539063 419.662768 
L 657.310927 419.662768 
L 657.310927 425.355976 
L 99.539063 425.355976 
z
" clip-path="url(#p2d89108b4d)" style="fill: #d39433"/>
   </g>
   <g id="patch_51">
    <path d="M 99.539063 445.540985 
L 633.059976 445.540985 
L 633.059976 451.234193 
L 99.539063 451.234193 
z
" clip-path="url(#p2d89108b4d)" style="fill: #d39433"/>
   </g>
   <g id="patch_52">
    <path d="M 99.539063 471.419202 
L 657.310927 471.419202 
L 657.310927 477.11241 
L 99.539063 477.11241 
z
" clip-path="url(#p2d89108b4d)" style="fill: #d39433"/>
   </g>
   <g id="patch_53">
    <path d="M 99.539063 497.297419 
L 657.310927 497.297419 
L 657.310927 502.990626 
L 99.539063 502.990626 
z
" clip-path="url(#p2d89108b4d)" style="fill: #d39433"/>
   </g>
   <g id="patch_54">
    <path d="M 99.539063 524.598937 
L 99.539063 49.216095 
" style="fill: none; stroke: #000000; stroke-width: 0.8; stroke-linejoin: miter; stroke-linecap: square"/>
   </g>
   <g id="patch_55">
    <path d="M 99.539063 524.598937 
L 685.19952 524.598937 
" style="fill: none; stroke: #000000; stroke-width: 0.8; stroke-linejoin: miter; stroke-linecap: square"/>
   </g>
   <g id="text_25">
    <text style="font-size: 12px; font-family: 'DejaVu Sans'; text-anchor: middle" x="392.369291" y="43.216095" transform="rotate(-0 392.369291 43.216095)">Performance by rhythm class</text>
   </g>
   <g id="legend_1">
    <g id="patch_56">
     <path d="M 287.084916 18.798437 
L 307.084916 18.798437 
L 307.084916 11.798437 
L 287.084916 11.798437 
z
" style="fill: #213b56"/>
    </g>
    <g id="text_26">
     <text style="font-size: 10px; font-family: 'DejaVu Sans'; text-anchor: start" x="315.084916" y="18.798437" transform="rotate(-0 315.084916 18.798437)">Precision</text>
    </g>
    <g id="patch_57">
     <path d="M 379.703666 18.798437 
L 399.703666 18.798437 
L 399.703666 11.798437 
L 379.703666 11.798437 
z
" style="fill: #137e7a"/>
    </g>
    <g id="text_27">
     <text style="font-size: 10px; font-family: 'DejaVu Sans'; text-anchor: start" x="407.703666" y="18.798437" transform="rotate(-0 407.703666 18.798437)">Recall</text>
    </g>
    <g id="patch_58">
     <path d="M 457.539604 18.798437 
L 477.539604 18.798437 
L 477.539604 11.798437 
L 457.539604 11.798437 
z
" style="fill: #d39433"/>
    </g>
    <g id="text_28">
     <text style="font-size: 10px; font-family: 'DejaVu Sans'; text-anchor: start" x="485.539604" y="18.798437" transform="rotate(-0 485.539604 18.798437)">F1</text>
    </g>
   </g>
  </g>
 </g>
 <defs>
  <clipPath id="p2d89108b4d">
   <rect x="99.539063" y="49.216095" width="585.660457" height="475.382842"/>
  </clipPath>
 </defs>
</svg>
